<svg version="1.2" xmlns="http://www.w3.org/2000/svg" viewBox="0 0 31 31" width="31" height="31"><defs><clipPath clipPathUnits="userSpaceOnUse" id="cp1"><path d="m5 3h21v24h-21z"/></clipPath></defs><style>.a{fill:#fefbfa}</style><path class="a" d="m15.5 31c-8.6 0-15.5-6.9-15.5-15.5 0-8.6 6.9-15.5 15.5-15.5 8.6 0 15.5 6.9 15.5 15.5 0 8.6-6.9 15.5-15.5 15.5z"/><g clip-path="url(#cp1)"><path fill-rule="evenodd" d="m11.5 10l2.9-3.3q0.2-0.3 0.2-0.7c0-0.5-0.3-1-0.9-1q-0.3 0-0.6 0.3l-4.1 4.7zm8 0h2.5l-4.1-4.7q-0.3-0.3-0.7-0.3c-0.5 0-0.8 0.5-0.8 1q-0.1 0.4 0.2 0.7zm-14.5 2v2h0.6c0.5 0 0.9 0.3 1.1 0.8l3.6 10.2h10.5l3.6-10.2c0.2-0.5 0.6-0.8 1.1-0.8h0.5v-2z"/></g></svg>